<svg xmlns="http://www.w3.org/2000/svg" width="52.5" height="48"><path fill="#FFF" d="M9.711 40.846c-2.652-4.329-3.978-8.696-3.978-13.104 0-3.899.984-7.634 2.954-11.202 1.969-3.568 4.827-6.835 8.57-9.799l4.505 2.749c.389.234.663.518.819.849.155.332.234.653.234.965 0 .352-.079.683-.234.995a4.23 4.23 0 01-.526.818 30.38 30.38 0 00-1.609 2.048 19.084 19.084 0 00-1.55 2.545 16.71 16.71 0 00-1.17 3.013 12.725 12.725 0 00-.468 3.51c0 1.326.214 2.74.644 4.241.429 1.502 1.15 3.071 2.165 4.709.351.547.526 1.093.526 1.639 0 1.248-.702 2.126-2.106 2.632l-8.776 3.392zm19.422 0c-2.652-4.329-3.978-8.696-3.978-13.104 0-3.899.985-7.634 2.955-11.202 1.969-3.568 4.826-6.835 8.57-9.799l4.504 2.749c.39.234.663.518.819.849.155.332.233.653.233.965 0 .352-.078.683-.233.995a4.183 4.183 0 01-.526.818 30.062 30.062 0 00-1.609 2.048 19.295 19.295 0 00-1.55 2.545 16.71 16.71 0 00-1.17 3.013 12.725 12.725 0 00-.468 3.51c0 1.326.214 2.74.644 4.241.429 1.502 1.149 3.071 2.164 4.709.351.547.526 1.093.526 1.639 0 1.248-.701 2.126-2.105 2.632l-8.776 3.392z"/></svg>